<svg id="visual" viewBox="0 0 1280 800" width="1280" height="800" xmlns="http://www.w3.org/2000/svg" xmlns:xlink="http://www.w3.org/1999/xlink" version="1.1"><rect width="1280" height="800" fill="#fcf9f8"></rect><g><g transform="translate(639 127)"><path d="M95.2 -68.6C126.5 -36.6 157.3 3.2 151.1 36C144.8 68.8 101.4 94.7 57 114.8C12.5 134.8 -33.1 149.1 -68.8 134.9C-104.6 120.8 -130.5 78.2 -137.1 35.3C-143.6 -7.6 -130.8 -50.8 -104.8 -81.6C-78.7 -112.4 -39.3 -130.7 -3.7 -127.7C31.9 -124.8 63.8 -100.5 95.2 -68.6Z" stroke="#54a68d" fill="none" stroke-width="4"></path></g><g transform="translate(280 641)"><path d="M112.7 -87.7C137.4 -58.8 143 -12.5 132.7 29.3C122.4 71.1 96.2 108.3 61.6 123.3C26.9 138.2 -16.3 130.9 -58.3 113.5C-100.2 96.2 -141 68.8 -150 33.2C-158.9 -2.4 -136.1 -46.4 -105.8 -76.6C-75.5 -106.7 -37.8 -123.2 3.1 -125.6C44 -128.1 87.9 -116.6 112.7 -87.7Z" stroke="#54a68d" fill="none" stroke-width="4"></path></g><g transform="translate(986 571)"><path d="M92.7 -76.7C113.8 -47.6 120 -9.4 113.2 27.9C106.3 65.1 86.3 101.4 55.8 116.3C25.2 131.2 -15.8 124.7 -51.5 107.4C-87.2 90 -117.6 61.9 -124.3 29.2C-131.1 -3.4 -114.4 -40.6 -89.7 -70.6C-65.1 -100.5 -32.5 -123.1 1.7 -124.4C35.8 -125.8 71.7 -105.8 92.7 -76.7Z" stroke="#54a68d" fill="none" stroke-width="4"></path></g><g transform="translate(215 228)"><path d="M60.5 -48.8C71.1 -35 67.2 -10.3 61 12.7C54.8 35.7 46.2 56.9 30.7 64.9C15.1 72.8 -7.4 67.5 -26.1 57.3C-44.7 47.1 -59.5 32 -63.8 14.2C-68.2 -3.7 -62.3 -24.3 -49.9 -38.5C-37.5 -52.7 -18.8 -60.5 3.1 -63C25 -65.4 49.9 -62.6 60.5 -48.8Z" stroke="#54a68d" fill="none" stroke-width="4"></path></g><g transform="translate(1236 128)"><path d="M76.4 -58.1C92.3 -40.9 93.8 -9.6 87.1 19.8C80.4 49.3 65.3 76.8 43.4 85.6C21.4 94.5 -7.3 84.8 -34.4 71.7C-61.5 58.5 -86.8 42.1 -93.1 19.8C-99.3 -2.5 -86.4 -30.5 -67.7 -48.3C-49 -66.2 -24.5 -73.7 2.9 -76C30.2 -78.3 60.4 -75.3 76.4 -58.1Z" stroke="#54a68d" fill="none" stroke-width="4"></path></g></g></svg>