<svg id="visual" viewBox="0 0 1920 1000" width="1920" height="1000" xmlns="http://www.w3.org/2000/svg" xmlns:xlink="http://www.w3.org/1999/xlink" version="1.1"><rect width="1920" height="1000" fill="#fcf9f8"></rect><g><g transform="translate(369 672)"><path d="M127.1 -106.3C149.7 -73.1 142.5 -21.1 127.8 23.4C113 68 90.7 105.1 49.8 138C8.9 171 -50.6 199.8 -100.4 184.9C-150.2 169.9 -190.2 111.2 -190.8 58.1C-191.3 4.9 -152.3 -42.7 -113.9 -79.6C-75.6 -116.4 -37.8 -142.5 7.3 -148.3C52.3 -154.1 104.6 -139.6 127.1 -106.3Z" stroke="#54a68d" fill="none" stroke-width="5"></path></g><g transform="translate(1258 215)"><path d="M136 -125.3C159.7 -78.7 151.1 -23.1 134.6 23.3C118.1 69.7 93.8 106.9 54.5 133.6C15.3 160.3 -38.7 176.5 -78.3 158.8C-117.8 141.2 -142.8 89.8 -152.5 37.5C-162.3 -14.7 -156.9 -67.7 -128.9 -115.3C-100.9 -162.9 -50.5 -205 2.8 -207.3C56.1 -209.6 112.2 -171.9 136 -125.3Z" stroke="#54a68d" fill="none" stroke-width="5"></path></g><g transform="translate(1891 501)"><path d="M72.9 -56.6C86.7 -40.9 84.7 -11 77.7 17C70.7 45.1 58.9 71.3 36.5 85.9C14.2 100.5 -18.5 103.5 -45.9 91.7C-73.2 79.9 -95 53.3 -101 23.9C-107.1 -5.5 -97.3 -37.6 -77.8 -54.7C-58.3 -71.7 -29.2 -73.7 0.2 -73.9C29.6 -74 59.2 -72.4 72.9 -56.6Z" stroke="#54a68d" fill="none" stroke-width="5"></path></g><g transform="translate(2 54)"><path d="M58.5 -44.3C74.3 -26.8 84.7 -2.5 83.1 24.7C81.4 51.8 67.7 82 44.9 92.7C22.2 103.4 -9.6 94.7 -32.3 79.2C-54.9 63.6 -68.5 41.2 -71.3 19.1C-74.1 -3 -66.2 -24.8 -52.5 -41.8C-38.9 -58.7 -19.4 -71 0.9 -71.8C21.3 -72.5 42.6 -61.8 58.5 -44.3Z" stroke="#54a68d" fill="none" stroke-width="5"></path></g><g transform="translate(1115 805)"><path d="M82.5 -72.7C101.5 -41.9 107.9 -7.9 101.2 23.7C94.4 55.2 74.5 84.3 45.7 100.2C16.9 116.1 -20.8 118.7 -49 104.2C-77.2 89.6 -95.9 57.9 -106.7 21.3C-117.5 -15.3 -120.3 -56.8 -101.2 -87.6C-82.1 -118.4 -41.1 -138.5 -4.7 -134.8C31.7 -131 63.4 -103.5 82.5 -72.7Z" stroke="#54a68d" fill="none" stroke-width="5"></path></g><g transform="translate(673 191)"><path d="M114.7 -96.7C137.3 -63.1 136.5 -16.1 130.5 37.6C124.5 91.3 113.3 151.6 76.5 176C39.6 200.3 -22.8 188.6 -71.3 160.5C-119.8 132.4 -154.4 87.8 -163.3 39.9C-172.1 -8 -155.2 -59.1 -123.7 -94.8C-92.2 -130.5 -46.1 -150.7 0 -150.6C46 -150.6 92.1 -130.4 114.7 -96.7Z" stroke="#54a68d" fill="none" stroke-width="5"></path></g></g></svg>