<svg width="347" height="61" viewBox="0 0 347 61" fill="none" xmlns="http://www.w3.org/2000/svg">
<path d="M47.2997 49H34.9773V12.6364H47.5483C51.1586 12.6364 54.2599 13.3643 56.8523 14.8203C59.4564 16.2644 61.4569 18.3419 62.8537 21.0526C64.2505 23.7633 64.9489 27.0066 64.9489 30.7827C64.9489 34.5705 64.2446 37.8258 62.8359 40.5483C61.4392 43.2708 59.4209 45.3601 56.7812 46.8161C54.1534 48.272 50.9929 49 47.2997 49ZM41.5646 43.3004H46.9801C49.5133 43.3004 51.6262 42.8388 53.3189 41.9155C55.0116 40.9804 56.2841 39.5895 57.1364 37.7429C57.9886 35.8845 58.4148 33.5644 58.4148 30.7827C58.4148 28.0009 57.9886 25.6927 57.1364 23.858C56.2841 22.0114 55.0234 20.6323 53.3544 19.7209C51.6972 18.7976 49.6375 18.3359 47.1754 18.3359H41.5646V43.3004ZM70.9237 49V21.7273H77.3512V49H70.9237ZM74.1552 17.8565C73.1372 17.8565 72.2612 17.5192 71.5273 16.8445C70.7934 16.1579 70.4265 15.3352 70.4265 14.3764C70.4265 13.4058 70.7934 12.5831 71.5273 11.9084C72.2612 11.2218 73.1372 10.8786 74.1552 10.8786C75.185 10.8786 76.061 11.2218 76.783 11.9084C77.5169 12.5831 77.8839 13.4058 77.8839 14.3764C77.8839 15.3352 77.5169 16.1579 76.783 16.8445C76.061 17.5192 75.185 17.8565 74.1552 17.8565ZM95.8571 49.5327C93.1345 49.5327 90.7967 48.9349 88.8436 47.7393C86.9023 46.5438 85.4049 44.8925 84.3514 42.7855C83.3097 40.6667 82.7889 38.2282 82.7889 35.4702C82.7889 32.7003 83.3216 30.2559 84.3869 28.1371C85.4522 26.0064 86.9556 24.3492 88.8968 23.1655C90.85 21.9699 93.1582 21.3722 95.8216 21.3722C98.0351 21.3722 99.9941 21.7805 101.699 22.5973C103.415 23.4022 104.782 24.5445 105.8 26.0241C106.818 27.492 107.398 29.2083 107.54 31.1733H101.397C101.148 29.8594 100.556 28.7644 99.6213 27.8885C98.698 27.0007 97.461 26.5568 95.9103 26.5568C94.5964 26.5568 93.4423 26.9119 92.448 27.6222C91.4537 28.3205 90.6783 29.3267 90.122 30.6406C89.5775 31.9545 89.3052 33.5289 89.3052 35.3636C89.3052 37.2221 89.5775 38.8201 90.122 40.1577C90.6665 41.4834 91.43 42.5073 92.4125 43.2294C93.4068 43.9396 94.5727 44.2947 95.9103 44.2947C96.8573 44.2947 97.7037 44.1172 98.4494 43.7621C99.207 43.3951 99.8403 42.8684 100.349 42.1818C100.858 41.4953 101.207 40.6607 101.397 39.6783H107.54C107.386 41.6077 106.818 43.3182 105.836 44.8097C104.853 46.2893 103.516 47.4493 101.823 48.2898C100.13 49.1184 98.1416 49.5327 95.8571 49.5327ZM126.437 21.7273V26.6989H110.759V21.7273H126.437ZM114.629 15.1932H121.057V40.7969C121.057 41.661 121.187 42.3239 121.447 42.7855C121.72 43.2353 122.075 43.5431 122.513 43.7088C122.951 43.8745 123.436 43.9574 123.969 43.9574C124.371 43.9574 124.738 43.9278 125.07 43.8686C125.413 43.8094 125.673 43.7562 125.851 43.7088L126.934 48.7337C126.591 48.852 126.099 48.9822 125.46 49.1243C124.833 49.2663 124.063 49.3492 123.152 49.3729C121.542 49.4202 120.092 49.1776 118.802 48.6449C117.512 48.1004 116.488 47.2599 115.73 46.1236C114.984 44.9872 114.617 43.5668 114.629 41.8622V15.1932ZM131.812 49V21.7273H138.24V49H131.812ZM135.044 17.8565C134.026 17.8565 133.15 17.5192 132.416 16.8445C131.682 16.1579 131.315 15.3352 131.315 14.3764C131.315 13.4058 131.682 12.5831 132.416 11.9084C133.15 11.2218 134.026 10.8786 135.044 10.8786C136.074 10.8786 136.95 11.2218 137.672 11.9084C138.406 12.5831 138.773 13.4058 138.773 14.3764C138.773 15.3352 138.406 16.1579 137.672 16.8445C136.95 17.5192 136.074 17.8565 135.044 17.8565ZM156.746 49.5327C154.082 49.5327 151.774 48.9467 149.821 47.7749C147.868 46.603 146.353 44.9635 145.276 42.8565C144.21 40.7495 143.678 38.2874 143.678 35.4702C143.678 32.6529 144.21 30.1849 145.276 28.0661C146.353 25.9472 147.868 24.3018 149.821 23.13C151.774 21.9581 154.082 21.3722 156.746 21.3722C159.409 21.3722 161.717 21.9581 163.67 23.13C165.624 24.3018 167.133 25.9472 168.198 28.0661C169.275 30.1849 169.814 32.6529 169.814 35.4702C169.814 38.2874 169.275 40.7495 168.198 42.8565C167.133 44.9635 165.624 46.603 163.67 47.7749C161.717 48.9467 159.409 49.5327 156.746 49.5327ZM156.781 44.3835C158.225 44.3835 159.433 43.987 160.403 43.1939C161.374 42.389 162.096 41.3118 162.57 39.9624C163.055 38.6129 163.298 37.1096 163.298 35.4524C163.298 33.7834 163.055 32.2741 162.57 30.9247C162.096 29.5634 161.374 28.4804 160.403 27.6754C159.433 26.8705 158.225 26.468 156.781 26.468C155.302 26.468 154.071 26.8705 153.088 27.6754C152.117 28.4804 151.389 29.5634 150.904 30.9247C150.431 32.2741 150.194 33.7834 150.194 35.4524C150.194 37.1096 150.431 38.6129 150.904 39.9624C151.389 41.3118 152.117 42.389 153.088 43.1939C154.071 43.987 155.302 44.3835 156.781 44.3835ZM181.697 33.0199V49H175.269V21.7273H181.413V26.3615H181.732C182.36 24.8345 183.36 23.6212 184.733 22.7216C186.118 21.822 187.829 21.3722 189.865 21.3722C191.747 21.3722 193.386 21.7746 194.783 22.5795C196.191 23.3845 197.28 24.5504 198.05 26.0774C198.831 27.6044 199.216 29.4569 199.204 31.6349V49H192.776V32.6293C192.776 30.8063 192.303 29.38 191.356 28.3501C190.421 27.3203 189.125 26.8054 187.468 26.8054C186.343 26.8054 185.343 27.054 184.467 27.5511C183.603 28.0365 182.922 28.7408 182.425 29.6641C181.94 30.5874 181.697 31.706 181.697 33.0199ZM213.586 49.5504C211.858 49.5504 210.301 49.2427 208.916 48.6271C207.543 47.9998 206.454 47.0765 205.649 45.8572C204.856 44.638 204.46 43.1347 204.46 41.3473C204.46 39.8085 204.744 38.536 205.312 37.5298C205.88 36.5237 206.655 35.7188 207.638 35.1151C208.62 34.5114 209.727 34.0556 210.958 33.7479C212.201 33.4283 213.485 33.1974 214.811 33.0554C216.409 32.8897 217.705 32.7417 218.7 32.6115C219.694 32.4695 220.416 32.2564 220.866 31.9723C221.328 31.6764 221.558 31.2206 221.558 30.6051V30.4986C221.558 29.161 221.162 28.1252 220.369 27.3913C219.576 26.6574 218.433 26.2905 216.942 26.2905C215.368 26.2905 214.119 26.6338 213.195 27.3203C212.284 28.0069 211.669 28.8177 211.349 29.7528L205.347 28.9006C205.821 27.2434 206.602 25.8584 207.691 24.7457C208.78 23.6212 210.112 22.7808 211.686 22.2244C213.261 21.6562 215.001 21.3722 216.906 21.3722C218.22 21.3722 219.528 21.526 220.83 21.8338C222.133 22.1416 223.322 22.6506 224.399 23.3608C225.477 24.0592 226.341 25.0121 226.992 26.2195C227.655 27.4268 227.986 28.9361 227.986 30.7472V49H221.807V45.2536H221.594C221.203 46.0111 220.653 46.7214 219.943 47.3842C219.244 48.0353 218.362 48.562 217.297 48.9645C216.244 49.3551 215.007 49.5504 213.586 49.5504ZM215.255 44.8274C216.545 44.8274 217.664 44.5729 218.611 44.0639C219.558 43.5431 220.286 42.8565 220.795 42.0043C221.316 41.152 221.576 40.2228 221.576 39.2166V36.0028C221.375 36.1686 221.032 36.3224 220.546 36.4645C220.073 36.6065 219.54 36.7308 218.948 36.8374C218.356 36.9439 217.771 37.0386 217.191 37.1214C216.61 37.2043 216.107 37.2753 215.681 37.3345C214.722 37.4647 213.864 37.6778 213.107 37.9737C212.349 38.2696 211.751 38.6839 211.313 39.2166C210.875 39.7375 210.656 40.4122 210.656 41.2408C210.656 42.4245 211.088 43.3182 211.953 43.9219C212.817 44.5256 213.918 44.8274 215.255 44.8274ZM234.449 49V21.7273H240.681V26.2727H240.965C241.463 24.6984 242.315 23.4851 243.522 22.6328C244.741 21.7687 246.132 21.3366 247.695 21.3366C248.05 21.3366 248.446 21.3544 248.884 21.3899C249.334 21.4136 249.707 21.455 250.003 21.5142V27.4268C249.731 27.3321 249.299 27.2493 248.707 27.1783C248.127 27.0954 247.565 27.054 247.02 27.054C245.848 27.054 244.795 27.3085 243.86 27.8175C242.936 28.3146 242.208 29.0071 241.676 29.8949C241.143 30.7827 240.877 31.8066 240.877 32.9666V49H234.449ZM259.098 59.2273C258.222 59.2273 257.412 59.1563 256.666 59.0142C255.932 58.884 255.346 58.7301 254.908 58.5526L256.4 53.5455C257.335 53.8177 258.169 53.9479 258.903 53.9361C259.637 53.9242 260.282 53.6934 260.838 53.2436C261.407 52.8056 261.886 52.0717 262.277 51.0419L262.827 49.5682L252.937 21.7273H259.755L266.041 42.3239H266.325L272.628 21.7273H279.464L268.544 52.3026C268.035 53.7467 267.361 54.9837 266.52 56.0135C265.68 57.0552 264.65 57.8482 263.431 58.3928C262.223 58.9491 260.779 59.2273 259.098 59.2273Z" fill="#180E0C"/>
<path d="M23.2666 41.3086L22.6318 41.6016C22.5667 41.6992 22.5179 41.7969 22.4854 41.8945C22.4528 41.9596 22.3877 42.0247 22.29 42.0898C22.0296 42.0898 21.7367 42.2038 21.4111 42.4316C21.1182 42.627 20.8903 42.806 20.7275 42.9688C20.5322 43.0339 20.3206 43.099 20.0928 43.1641C19.8649 43.1966 19.6533 43.2454 19.458 43.3105C18.9046 43.0827 18.3024 42.8548 17.6514 42.627C17.0003 42.3665 16.4144 42.0736 15.8936 41.748C15.1449 41.2923 14.3962 40.8529 13.6475 40.4297C12.9313 40.0065 12.1989 39.5996 11.4502 39.209C11.1247 39.0462 10.8805 38.8997 10.7178 38.7695C10.555 38.6068 10.3597 38.444 10.1318 38.2812C10.0342 38.2161 9.93652 38.1673 9.83887 38.1348C9.77376 38.0697 9.67611 38.0046 9.5459 37.9395C9.25293 37.679 8.97624 37.4837 8.71582 37.3535C8.4554 37.1908 8.14616 37.028 7.78809 36.8652C7.52767 36.7676 7.2998 36.6374 7.10449 36.4746C6.90918 36.2793 6.66504 36.1491 6.37207 36.084C6.014 35.7259 5.59082 35.4818 5.10254 35.3516C4.64681 35.2214 4.19108 35.14 3.73535 35.1074C3.27962 35.2051 2.98665 35.2539 2.85645 35.2539C2.75879 35.2214 2.62858 35.1888 2.46582 35.1562L2.41699 34.5215C2.28678 34.196 2.22168 34.0007 2.22168 33.9355C2.25423 33.8379 2.27051 33.7565 2.27051 33.6914C2.40072 33.4635 2.46582 33.2031 2.46582 32.9102C2.46582 32.5846 2.40072 32.2754 2.27051 31.9824C2.53092 31.6243 2.69368 31.3965 2.75879 31.2988C2.85645 31.1686 2.93783 31.0384 3.00293 30.9082C3.06803 30.8431 3.13314 30.778 3.19824 30.7129C3.2959 30.6478 3.37728 30.5827 3.44238 30.5176C3.99577 30.3874 4.5166 30.1921 5.00488 29.9316C5.52572 29.6712 6.06283 29.4596 6.61621 29.2969C7.36491 28.9388 7.91829 28.6784 8.27637 28.5156C8.66699 28.3203 9.05762 28.1087 9.44824 27.8809C9.77376 27.7181 10.083 27.5879 10.376 27.4902C10.7015 27.3926 10.9945 27.2624 11.2549 27.0996C11.5804 26.9368 11.8734 26.8066 12.1338 26.709C12.4268 26.6113 12.7197 26.4811 13.0127 26.3184C13.5661 26.0579 14.0706 25.8138 14.5264 25.5859C14.9821 25.3255 15.4704 25.0814 15.9912 24.8535C16.1865 24.7559 16.3493 24.6582 16.4795 24.5605C16.6097 24.4303 16.7562 24.3164 16.9189 24.2188C17.5374 23.9258 18.1234 23.6491 18.6768 23.3887C19.2301 23.1283 19.751 22.8027 20.2393 22.4121C20.402 22.3796 20.5322 22.3633 20.6299 22.3633C20.7601 22.3633 20.8903 22.3633 21.0205 22.3633C21.1833 22.4935 21.2972 22.64 21.3623 22.8027C21.46 22.9329 21.5739 23.0632 21.7041 23.1934C21.8018 23.6165 21.9808 23.9909 22.2412 24.3164C22.2412 24.5117 22.3226 24.7721 22.4854 25.0977C22.6807 25.3906 22.8434 25.6185 22.9736 25.7812C23.0387 26.0417 23.1201 26.2695 23.2178 26.4648C23.3154 26.6276 23.3643 26.8229 23.3643 27.0508C23.2666 27.1484 23.1527 27.2949 23.0225 27.4902C22.7946 27.5879 22.5667 27.6855 22.3389 27.7832C22.1436 27.8483 21.9482 27.946 21.7529 28.0762C21.3623 28.2064 20.9554 28.4017 20.5322 28.6621C20.1416 28.9225 19.7021 29.1178 19.2139 29.248C18.9209 29.4434 18.7093 29.541 18.5791 29.541C18.221 29.7363 17.863 29.8828 17.5049 29.9805C17.0817 30.2409 16.6585 30.4688 16.2354 30.6641C15.8122 30.8594 15.3727 31.0384 14.917 31.2012C14.266 31.4616 13.6637 31.7383 13.1104 32.0312C12.5895 32.3242 12.0199 32.6335 11.4014 32.959C11.6618 33.1217 12.0199 33.3659 12.4756 33.6914C12.9639 34.0169 13.3382 34.2285 13.5986 34.3262C13.8265 34.5866 14.1195 34.8307 14.4775 35.0586C14.8682 35.2539 15.2588 35.4492 15.6494 35.6445C16.0726 35.8398 16.4795 36.0352 16.8701 36.2305C17.2607 36.4258 17.6025 36.6211 17.8955 36.8164C18.1234 36.9141 18.4001 37.0768 18.7256 37.3047C19.0837 37.5326 19.3766 37.6465 19.6045 37.6465C19.7998 37.679 19.9626 37.7116 20.0928 37.7441C20.223 37.7767 20.3369 37.8092 20.4346 37.8418C20.7926 38.0046 21.1344 38.1673 21.46 38.3301C21.7855 38.4928 22.1273 38.6556 22.4854 38.8184C22.6481 39.0788 22.8434 39.2741 23.0713 39.4043C23.2992 39.502 23.4945 39.6647 23.6572 39.8926C23.6572 40.0553 23.6572 40.2344 23.6572 40.4297C23.6898 40.5924 23.7223 40.7715 23.7549 40.9668C23.6898 41.0319 23.6247 41.097 23.5596 41.1621C23.4945 41.2272 23.3968 41.276 23.2666 41.3086Z" fill="#3F707D"/>
<path d="M312.703 16.4551C312.703 16.8783 312.654 17.2852 312.557 17.6758C312.492 17.8711 312.394 18.1315 312.264 18.457C312.166 18.7826 312.052 19.1243 311.922 19.4824C311.792 19.8079 311.661 20.1335 311.531 20.459C311.401 20.7845 311.287 21.0449 311.189 21.2402C310.994 21.696 310.815 22.1354 310.652 22.5586C310.522 22.9818 310.376 23.3887 310.213 23.7793C310.148 23.9746 310.05 24.1536 309.92 24.3164C309.822 24.4466 309.741 24.5931 309.676 24.7559C309.513 25.0814 309.383 25.4232 309.285 25.7812C309.22 26.1393 309.106 26.4974 308.943 26.8555C308.585 27.8646 308.211 28.8574 307.82 29.834C307.43 30.8105 307.072 31.8197 306.746 32.8613C306.29 34.2285 305.802 35.5794 305.281 36.9141C304.76 38.2161 304.288 39.5671 303.865 40.9668C303.8 41.0319 303.735 41.1133 303.67 41.2109C303.637 41.3086 303.589 41.4062 303.523 41.5039C303.458 41.7318 303.279 42.2526 302.986 43.0664C302.693 43.8477 302.368 44.694 302.01 45.6055C301.684 46.5169 301.359 47.3633 301.033 48.1445C300.74 48.9258 300.529 49.4141 300.398 49.6094C300.236 49.5768 300.105 49.4954 300.008 49.3652C299.943 49.235 299.845 49.1211 299.715 49.0234C299.487 49.0234 299.275 49.1211 299.08 49.3164C298.852 49.1536 298.608 49.0885 298.348 49.1211C298.087 49.1211 297.892 48.9583 297.762 48.6328C297.632 48.6328 297.501 48.6491 297.371 48.6816C297.273 48.7142 297.176 48.7305 297.078 48.7305C296.883 48.6328 296.769 48.5352 296.736 48.4375C296.736 48.3398 296.736 48.2422 296.736 48.1445C296.736 47.9818 296.753 47.8516 296.785 47.7539C296.818 47.6237 296.834 47.4772 296.834 47.3145C296.834 47.2493 296.818 47.1842 296.785 47.1191C296.785 47.0215 296.785 46.9076 296.785 46.7773C296.818 46.4518 296.915 46.0612 297.078 45.6055C297.241 45.1172 297.436 44.6126 297.664 44.0918C297.892 43.5384 298.104 43.0176 298.299 42.5293C298.527 42.041 298.689 41.6504 298.787 41.3574C299.275 40.1204 299.747 38.8672 300.203 37.5977C300.691 36.2956 301.18 35.026 301.668 33.7891C302.059 32.7474 302.417 31.6895 302.742 30.6152C303.1 29.5085 303.491 28.4342 303.914 27.3926C304.012 27.1973 304.093 27.002 304.158 26.8066C304.256 26.6113 304.305 26.3997 304.305 26.1719C304.565 25.7161 304.777 25.2441 304.939 24.7559C305.135 24.235 305.314 23.7142 305.477 23.1934C305.672 22.7051 305.851 22.2168 306.014 21.7285C306.209 21.2402 306.421 20.7682 306.648 20.3125C306.941 19.5964 307.234 18.8802 307.527 18.1641C307.853 17.4479 308.146 16.7318 308.406 16.0156L308.943 14.4043C309.367 14.4368 309.66 14.5508 309.822 14.7461C310.083 14.7461 310.278 14.7461 310.408 14.7461C310.701 14.7461 310.962 14.8926 311.189 15.1855C311.645 15.0879 311.857 15.1204 311.824 15.2832C311.824 15.446 311.922 15.5273 312.117 15.5273C312.41 15.4297 312.573 15.5436 312.605 15.8691C312.671 16.1621 312.703 16.3574 312.703 16.4551ZM316.756 41.3086C316.626 41.276 316.528 41.2272 316.463 41.1621C316.398 41.097 316.316 41.0319 316.219 40.9668C316.284 40.7715 316.316 40.5924 316.316 40.4297C316.316 40.2344 316.316 40.0553 316.316 39.8926C316.512 39.6647 316.707 39.502 316.902 39.4043C317.13 39.2741 317.326 39.0788 317.488 38.8184C317.846 38.6556 318.188 38.4928 318.514 38.3301C318.839 38.1673 319.181 38.0046 319.539 37.8418C319.865 37.7767 320.092 37.6953 320.223 37.5977C320.548 37.6302 320.874 37.5326 321.199 37.3047C321.557 37.0768 321.85 36.9141 322.078 36.8164C322.371 36.6211 322.713 36.4258 323.104 36.2305C323.494 36.0352 323.885 35.8398 324.275 35.6445C324.699 35.4492 325.089 35.2539 325.447 35.0586C325.838 34.8307 326.147 34.5866 326.375 34.3262C326.635 34.2285 326.993 34.0169 327.449 33.6914C327.938 33.3659 328.312 33.1217 328.572 32.959C327.986 32.6335 327.417 32.3242 326.863 32.0312C326.31 31.7383 325.708 31.4616 325.057 31.2012C324.633 31.0384 324.194 30.8594 323.738 30.6641C323.315 30.4688 322.908 30.2409 322.518 29.9805C322.322 29.9154 322.143 29.8503 321.98 29.7852C321.818 29.7201 321.655 29.6387 321.492 29.541C321.134 29.4108 320.89 29.3132 320.76 29.248C320.304 29.1178 319.865 28.9225 319.441 28.6621C319.051 28.4017 318.66 28.2064 318.27 28.0762C318.074 27.946 317.863 27.8483 317.635 27.7832C317.407 27.6855 317.179 27.5879 316.951 27.4902C316.723 26.9694 316.658 26.6276 316.756 26.4648C316.854 26.2695 316.935 26.0417 317 25.7812C317.163 25.6185 317.326 25.3906 317.488 25.0977C317.651 24.7721 317.732 24.5117 317.732 24.3164C317.993 23.9909 318.172 23.6165 318.27 23.1934C318.4 23.0632 318.497 22.9329 318.562 22.8027C318.66 22.64 318.79 22.4935 318.953 22.3633C319.083 22.3633 319.214 22.3633 319.344 22.3633C319.474 22.3633 319.604 22.3796 319.734 22.4121C320.223 22.8027 320.743 23.1283 321.297 23.3887C321.883 23.6491 322.469 23.9095 323.055 24.1699C323.217 24.3001 323.364 24.4303 323.494 24.5605C323.624 24.6582 323.771 24.7559 323.934 24.8535C324.52 25.0814 325.04 25.3255 325.496 25.5859C325.952 25.8138 326.424 26.0579 326.912 26.3184C327.238 26.4811 327.547 26.6113 327.84 26.709C328.133 26.8066 328.426 26.9368 328.719 27.0996C329.012 27.2624 329.305 27.3926 329.598 27.4902C329.891 27.5879 330.2 27.7181 330.525 27.8809C330.916 28.1087 331.29 28.3203 331.648 28.5156C332.039 28.6784 332.462 28.8411 332.918 29.0039C333.764 29.362 334.432 29.6712 334.92 29.9316C335.441 30.1921 335.978 30.3874 336.531 30.5176C336.596 30.5827 336.661 30.6478 336.727 30.7129C336.824 30.778 336.906 30.8431 336.971 30.9082C337.036 31.0384 337.101 31.1686 337.166 31.2988C337.264 31.3965 337.361 31.4941 337.459 31.5918C337.557 32.015 337.589 32.3079 337.557 32.4707C337.524 32.6009 337.508 32.7474 337.508 32.9102C337.508 33.2031 337.573 33.4635 337.703 33.6914C337.736 34.0495 337.719 34.2611 337.654 34.3262C337.622 34.3913 337.589 34.4564 337.557 34.5215C337.589 34.6842 337.589 34.8145 337.557 34.9121C337.524 34.9772 337.508 35.0586 337.508 35.1562C337.378 35.1888 337.247 35.2214 337.117 35.2539C337.02 35.2539 336.889 35.2539 336.727 35.2539C335.945 35.1888 335.311 35.2214 334.822 35.3516C334.367 35.4818 333.96 35.7259 333.602 36.084C333.309 36.1491 333.064 36.2793 332.869 36.4746C332.674 36.6374 332.446 36.7676 332.186 36.8652C331.827 37.028 331.518 37.1908 331.258 37.3535C330.997 37.4837 330.721 37.679 330.428 37.9395C330.298 38.0371 330.102 38.151 329.842 38.2812C329.646 38.444 329.451 38.6068 329.256 38.7695C329.093 38.8997 328.93 38.9974 328.768 39.0625C327.856 39.5508 327.042 40.0065 326.326 40.4297C325.61 40.8529 324.894 41.2923 324.178 41.748C323.624 42.0736 323.022 42.3665 322.371 42.627C321.72 42.8548 321.102 43.0827 320.516 43.3105C320.32 43.2454 320.109 43.1966 319.881 43.1641C319.686 43.099 319.474 43.0339 319.246 42.9688C319.083 42.806 318.839 42.627 318.514 42.4316C318.221 42.2038 317.944 42.0898 317.684 42.0898C317.586 42.0247 317.472 41.862 317.342 41.6016C317.081 41.5365 316.886 41.4388 316.756 41.3086Z" fill="#3F707D"/>
</svg>
